<mxfile host="65bd71144e">
    <diagram id="1CmY51fZinrV5ciRkFlj" name="ページ1">
        <mxGraphModel dx="1075" dy="680" grid="0" gridSize="10" guides="1" tooltips="1" connect="1" arrows="1" fold="1" page="0" pageScale="1" pageWidth="827" pageHeight="1169" math="0" shadow="0">
            <root>
                <mxCell id="0"/>
                <mxCell id="1" parent="0"/>
                <mxCell id="37" style="edgeStyle=none;html=1;entryX=0;entryY=0.5;entryDx=0;entryDy=0;" parent="1" source="6" target="8" edge="1">
                    <mxGeometry relative="1" as="geometry"/>
                </mxCell>
                <mxCell id="38" style="edgeStyle=none;html=1;entryX=0;entryY=0.5;entryDx=0;entryDy=0;" parent="1" source="6" target="11" edge="1">
                    <mxGeometry relative="1" as="geometry"/>
                </mxCell>
                <mxCell id="6" value="" style="shape=image;verticalLabelPosition=bottom;labelBackgroundColor=#ffffff;verticalAlign=top;aspect=fixed;imageAspect=0;image=data:image/png,iVBORw0KGgoAAAANSUhEUgAAAJwAAACcCAMAAAC9ZjJ/AAAAbFBMVEX////i4uIAAADj4+P8/Pzl5eX7+/v+/v7f39/o6Ojr6+vw8PCgoKDW1tbZ2dnS0tKRkZFOTk5vb29hYWFBQUGmpqa1tbVXV1eAgIA4ODjIyMhJSUkiIiKZmZkqKip1dXUZGRkNDQ2IiIi/v7+6Xr0UAAAMsUlEQVR4nO1cC5erKAzWi4hA1T612mk70/7//7hIgoJC69iZe/bsNrPn7LlNQz4xhDygUWQRI/FANLU4ic3JohDnZ2ViW+YN7g3uDe4N7g3uDe5fBS6xOTa2OGIWJZTEtPsjlBCaWpyUdp8AMyaRK4OkGHwko0YiMelGi0cy1CiKRzLq27ST6SgiFik8Sf+X8hFnYMVjjiafDEtQbCwzKBrJJBp9oiUjZx6ZPcPUYhCbE2U2x34rKQ1xHBlHTxrW44B7oOhHwc3V8wb3BvcG9wb3vwK3aIewOYzrfRTp9R2C2pQOpPY8i8EtTsroiNONmEjJaVyWeRZzKQV/JKN2UIsV1JNGzr/c7w0jJKkzNhsYjEkpy2p93O7q037f7E/1bns834nCy63hyCDz6LldPc4ssmCcxUKxmSjXpz9e2qzuOeW9kK0nHM8xx8oegHseOCbVce9HBtRcD7GkZPxAvx0JKytLi+vlETKgy7aNOfnLYXpa7Z4jA6oPRPxVcNXodX5+NLvrbX0+rM7H7f7j0+XuV9wx7l8ER7kLbXM9V4VQ7kMRfl20h2PtwDv8FXBElFtL6+nQFlR5NTKRkcXZfoYr9Y32s+BofLbmbMWVFycBmUhIx8+s0sloPwtOlJsBWisfK1L/FsV9EKjJb4Ij/PCFir52xSxFhIu27oUq9lPgJp6bimM/CffnMkaRWkD97B3NnM4DlwxkZe+KeJ8tK+r2PF4Y1/ahzIf1HCsltmUYcjpJejb+eisiPVpQj53kjzN+tzIwcBiLhHn+XSm7OoJmxEGZmA6fq8jMeJZTwUd6eOzosciN5x4FgZnBtgqHlI8C1LVBV1JHz4O4cW4kHGX4Ypp2YSQsKxzhUoqfLUdw806bbgktC9N5eTFvNgrKLABHC8S2S6JH4BgPcToZTnFFnURAzxJwVOCoW9kFS0FwqShitcfSALiYZmacnwR3dMf0gJPFCid3s24zTrzg1MaM6I7Mp2cJOHHAdypD4NjBie7qMxX+1JCYuat+CBwtYftpeu4Y3H2SRuwr5Wd9qSHlsCq+6ETPEnAUHZxap4mrCGQiuR5D6+iWUR849aiArk5HehaBExgjtVNFHXFZ+7CpJelE5kaGxLwC/uqb4Hw7BC3dsVxwhOaNQbM5qij9du1f8YVHzCdjZpo8B5dZ5LASoj/jEPfuUq9MHPcbro7uhKB5Zaay9stkGXzhinqoxYldcDax2Poehe/BS/go7SEsEVx8+7ukcS/T4uzthFcmij80+8AtPR4Erl14gk0GecBKWBxLCO1nUwhLRk0gTt5BeGQUgRnvhS2Dr8u2smfgKnxBtmEMimJYeduM2jKK5BXMrqQTmU4P3wyPvBxcqifu6x75ayU3raPJuC0D6GCdXKUPXMIr7TobtXhfAAcTtwsUciS8vDt3ZIBy4Jk5HWX8vEarewFcCvZeBAo5YDo37sgYAodxE15wtAVzeeW1ZmDugSoTuN+PgjoyhoRekpuM+MDFGB+2dDk4MOs2AK51zWo8C2CQFfWCo3dYSnIxuFQvxo0MgDuYh/eDA6s7cz+4QvvCi4pAF4KD5XAeCxlFeu/YZ6FyhNQrfecHF4s1LomlSTXEmDwEThvV0faAjqJUG8WH8IPDPfu6EBzj2ledtJAtg4oYOFI7bXCjJFjMfptT+7+e2CZ3wI1qwolNKkLUpe/ujzN4tkOX3KfwmWaTWLe50ctVwnzc/Zdag6FNZlhNtyoLXf2AYCjWClsmNer1eNMeP9P9dzUChjYtHXfloV9PweCrKHAuIBZ3tAo96KTHHxX47E6PP2GWonAHJ5V6PW0Kot+x/Vp0bNaDs9+Xk+sacINMbzHdJ+AmN9GSSDiB13alUyEAZ57cfiBbkYDFLqfgMKiF9bYIHEM/JQLgCEVHY7HcKsFKf4FNwaEesElqR2NzwYGX+6p4AFwsdGRxC9Y9qN4ivhwZR0+LK2IJOL0ePovQa40hsjhJi+GAgwh+FwYndEfgLG3OXHBH8KEkBI7CarY7DE59pez3lwA49OJLwDHYnaRHCMGBwa8D4HB/ah0ZV492w9clr1XqWK5+AC6Hvdvy8BY4AiF8X1DygdMadsTal2aDq63n8naq+XHsTCxwHCPRkYyjR8vX2QJwXM/L7QE4tKrLsG8O4EzVgT8Cp/GfcssW5mb8VFvE+gG4GCsRtQechEh3N5HRhKNpR7gvwzM37tf3Tfm4gYU+4SR9v56XkB0fE+b2xzmHGPozM93zxO3xQwtfe+F9zv0I3B6/03vn+R4MytN77zUyLHtcJR/OBXQRC2BTRuE5F9CfJZD6te6t9n8ys8dPSg1uNeVYsRmLsFRyajnN+mATiyHKQRNvUo3RITibPZ1ykILg0FGgDw0eDo2xyPRxK6WgvDMZeoaXbeX7/ja60PvbiU85z8ARePzjE3BRXwL7PJ3vbVEeNqZN3bQ8IGPAXcGTLgBHwEVC0BEGF7V9gc6lJg8Uf/rRwM3vFoDD59o/nLnuWAzPNz5sdQbGzf1JtQanH2vLppyn4CRs/GFw8r6qm4si79TtO1ZT36pMBMARqAkcPbCfg9ML/VOGwFWBWvCYNgfpP1dCc22d6ylnxmuFFKD1gxMzoWl4Kib0gMM6WDXlPAfHiR754AUnHh4TGpPaBDzgMDfMl9gcjbTs0QdOzjgoZNNH5jloRWEbkYsyfvD+4IZGO4Tp9dfr1Wpt08qi83p9NAv5ShxwehjoRJ7kzIzf6ZxzCBq6yuGYg62JukxZxLhFwu1vKjInN+6Rk/F3o0B+sxaLevy4IlYixkzcXBjADXVHxbNzAYxFKfYxpN3J70bDzLBkdFGPH3amUxeoO3FWClaOedmzHj+HtRNPoja9dzecLet9ocV2kaojBIkN9hiet9Hx63zEEbjeFh5A4DDxXc7vCOlIx4Qcz8EJvbRvYsQBi66Wdg1NAlUQV0hPaCPJTHARbKGjmYMQX6VuS1uaEoz5Th0htutNcR44cEmW0XUcWKvbxf1WaroFwimBQe5icuEZ4I5m/m1OjX5q8cxhwPmnpTa42E7L5oDT1tVYYbHiQIeja3ou7lRjFWvHbXCQcpnVNwOc9pefd2pD2OJyeAEcybQxf1XcEmqNIc4FB1XGygIXtdCYS18BZyKH2gYHfisns8GBRzvYXSjsy01lvtXjh3K/0+HXr/ozmw9OQlA5+BI8qNJ4ZGb2+JlunFOwuouVv9305uXtyjNvvz7VG9Wx59H80ltcSGZKKmAxXxp677hxq8fKur8MuszbtJfJBqFJv14ziR5iKJswHJJqtlsUjDMUmtPjN23NPytTgMTdyMjMOBwKR6EuCNyEI38wrX3ttCseermjY6ODLc8FBxUVw8No0Gy2r4HDalYDdTRsP1Te4fyKMIDAGicusVP2UGYuOPNi9zo/hr7M1907XAAcpFk5fIypkdp1fgScMZJtt3fDUaRL/g1w9P7RTzbGElaB/1VwzBzuEwRPIjXUO1wAXAl1yO5DLNxt/ecCFh3/TsxxRkKg+rL5ziF4kmlHtzX94c6LkCcy35i5iGI9ZIcn0mr/cAFFcBSiNj5TrS3+VGb+zEVRjna8L/UsXL8HToPaEDMG5c9lvgEu4S2WKxv9/7V/uBC4WyfzgbP/WUQzZL4BjsW0tcsj1QyZQRE6Opy3Yv6pfieLdev+Vh6tYnaRW+jKXi6FYwFTGTZUxjG5R28ZuTXzgIyupoczfk7dHD3iw3nbXFC/jHe0iPeCu5zTWTLTjP/JgXbWX9bYVHx+JBzd+2LeFfaFX7nfyiqj5atuxfQctRdcsTPXXP6s6LwSxiJwUUSsC0L3QtBn4GQ7lEBP5fOM7bWbwdK6WnVa59I+oD/q8asIZGVV2tfmoN9vXlvO7Etp+3MhJzKEck6L9mCfCu/uxnxPzyJwKsVxivv18dCaFEMIIaUUeXW+Ot2JpqL0+3oWgaP8POo9dBchj+uu1Hrb1s3kIuRhmZ6Ft9FFdphd66+rNPq7V+UJj9vtx3Nkl22RGpm/Bq6zepmtroGuHFrasUodGUM/e4/fcwqsG4rT/L7y9uWUoa1L7pGZjPab9/g7P0fu5+N2tzntG7wqv65KtWi7gMErM1NPqruSCf6N7/EnRn7a40/6v+7nBLp7wVmRl2VGudRdD+Y/F5BoNZPfC4BPkxHSR/f40xDH16+P9S8ccfY9Ga3nl+7xTzj/vV+0eoN7g3uDe4P7P4Gb3eP33MkHitlrMsDRPw/4UMbt8ZPEzsQDvfdIJeKWUuj+Q3Uicu/xJ1atw60sdJwIhWw9XTA1qPnGPX6LXv7lvl+PhF8A99/7ua03uDe4N7g3uDe4vwvuH2cz8LLyRFJ5AAAAAElFTkSuQmCC;" parent="1" vertex="1">
                    <mxGeometry x="10" y="231.08" width="46" height="46" as="geometry"/>
                </mxCell>
                <mxCell id="22" style="edgeStyle=none;html=1;entryX=0.5;entryY=0;entryDx=0;entryDy=0;" parent="1" source="8" target="20" edge="1">
                    <mxGeometry relative="1" as="geometry"/>
                </mxCell>
                <mxCell id="8" value="" style="shape=image;verticalLabelPosition=bottom;labelBackgroundColor=#ffffff;verticalAlign=top;aspect=fixed;imageAspect=0;image=https://cdn-icons-png.flaticon.com/512/25/25231.png?w=360;" parent="1" vertex="1">
                    <mxGeometry x="130" y="158" width="52" height="52" as="geometry"/>
                </mxCell>
                <mxCell id="9" value="開発者" style="text;html=1;strokeColor=none;fillColor=none;align=center;verticalAlign=middle;whiteSpace=wrap;rounded=0;" parent="1" vertex="1">
                    <mxGeometry x="19" y="296.08" width="60" height="30" as="geometry"/>
                </mxCell>
                <mxCell id="10" value="aninaka-web" style="text;html=1;strokeColor=none;fillColor=none;align=center;verticalAlign=middle;whiteSpace=wrap;rounded=0;" parent="1" vertex="1">
                    <mxGeometry x="109" y="210" width="94" height="30" as="geometry"/>
                </mxCell>
                <mxCell id="21" style="edgeStyle=none;html=1;entryX=0.5;entryY=1;entryDx=0;entryDy=0;" parent="1" source="11" target="20" edge="1">
                    <mxGeometry relative="1" as="geometry"/>
                </mxCell>
                <mxCell id="11" value="" style="shape=image;verticalLabelPosition=bottom;labelBackgroundColor=#ffffff;verticalAlign=top;aspect=fixed;imageAspect=0;image=https://cdn-icons-png.flaticon.com/512/25/25231.png?w=360;" parent="1" vertex="1">
                    <mxGeometry x="132" y="296" width="50" height="50" as="geometry"/>
                </mxCell>
                <mxCell id="12" value="aninaka-api" style="text;html=1;strokeColor=none;fillColor=none;align=center;verticalAlign=middle;whiteSpace=wrap;rounded=0;" parent="1" vertex="1">
                    <mxGeometry x="110" y="360" width="94" height="30" as="geometry"/>
                </mxCell>
                <mxCell id="13" value="" style="shape=image;verticalLabelPosition=bottom;labelBackgroundColor=#ffffff;verticalAlign=top;aspect=fixed;imageAspect=0;image=https://cdn-icons-png.flaticon.com/512/25/25231.png?w=360;" parent="1" vertex="1">
                    <mxGeometry x="470" y="169" width="52" height="52" as="geometry"/>
                </mxCell>
                <mxCell id="14" value="k8s-aninaka-web-manifests" style="text;html=1;strokeColor=none;fillColor=none;align=center;verticalAlign=middle;whiteSpace=wrap;rounded=0;" parent="1" vertex="1">
                    <mxGeometry x="439.5" y="220" width="173" height="30" as="geometry"/>
                </mxCell>
                <mxCell id="15" value="" style="shape=image;verticalLabelPosition=bottom;labelBackgroundColor=#ffffff;verticalAlign=top;aspect=fixed;imageAspect=0;image=https://cdn-icons-png.flaticon.com/512/25/25231.png?w=360;" parent="1" vertex="1">
                    <mxGeometry x="470" y="285.08" width="52" height="52" as="geometry"/>
                </mxCell>
                <mxCell id="16" value="k8s-aninaka-api-manifests" style="text;html=1;strokeColor=none;fillColor=none;align=center;verticalAlign=middle;whiteSpace=wrap;rounded=0;" parent="1" vertex="1">
                    <mxGeometry x="414" y="346" width="173" height="30" as="geometry"/>
                </mxCell>
                <mxCell id="17" value="" style="shape=image;verticalLabelPosition=bottom;labelBackgroundColor=#ffffff;verticalAlign=top;aspect=fixed;imageAspect=0;image=https://i.pinimg.com/originals/14/df/91/14df913393e32239d4d85d8804a1233a.png;" parent="1" vertex="1">
                    <mxGeometry x="310" y="83" width="66" height="66" as="geometry"/>
                </mxCell>
                <mxCell id="18" value="GCR" style="text;html=1;strokeColor=none;fillColor=none;align=center;verticalAlign=middle;whiteSpace=wrap;rounded=0;" parent="1" vertex="1">
                    <mxGeometry x="326" y="149" width="50" height="20" as="geometry"/>
                </mxCell>
                <mxCell id="26" style="edgeStyle=none;html=1;entryX=0;entryY=0.5;entryDx=0;entryDy=0;" parent="1" source="20" target="13" edge="1">
                    <mxGeometry relative="1" as="geometry">
                        <Array as="points">
                            <mxPoint x="370" y="263"/>
                        </Array>
                    </mxGeometry>
                </mxCell>
                <mxCell id="27" style="edgeStyle=none;html=1;entryX=0;entryY=0.5;entryDx=0;entryDy=0;" parent="1" source="20" target="15" edge="1">
                    <mxGeometry relative="1" as="geometry"/>
                </mxCell>
                <mxCell id="29" style="edgeStyle=none;html=1;" parent="1" source="20" target="17" edge="1">
                    <mxGeometry relative="1" as="geometry"/>
                </mxCell>
                <mxCell id="20" value="" style="shape=image;verticalLabelPosition=bottom;labelBackgroundColor=#ffffff;verticalAlign=top;aspect=fixed;imageAspect=0;image=https://res.cloudinary.com/practicaldev/image/fetch/s--AxVIC0I3--/c_imagga_scale,f_auto,fl_progressive,h_900,q_auto,w_1600/https://dev-to-uploads.s3.amazonaws.com/uploads/articles/mzxsak79ywsgqjv54x0r.png;" parent="1" vertex="1">
                    <mxGeometry x="260" y="236.23" width="80" height="45.08" as="geometry"/>
                </mxCell>
                <mxCell id="30" value="" style="shape=image;verticalLabelPosition=bottom;labelBackgroundColor=#ffffff;verticalAlign=top;aspect=fixed;imageAspect=0;image=https://d3njjcbhbojbot.cloudfront.net/api/utilities/v1/imageproxy/https://coursera-course-photos.s3.amazonaws.com/8b/0b59e567f6458f9ee45244bda95782/Container-Engine.png?auto=format%2Ccompress&amp;dpr=1;" parent="1" vertex="1">
                    <mxGeometry x="800" y="222.54000000000002" width="62.54" height="62.54" as="geometry"/>
                </mxCell>
                <mxCell id="31" value="GKE" style="text;html=1;strokeColor=none;fillColor=none;align=center;verticalAlign=middle;whiteSpace=wrap;rounded=0;" parent="1" vertex="1">
                    <mxGeometry x="810" y="286" width="40" height="30" as="geometry"/>
                </mxCell>
                <mxCell id="34" style="edgeStyle=none;html=1;entryX=1;entryY=0.5;entryDx=0;entryDy=0;" parent="1" source="32" target="13" edge="1">
                    <mxGeometry relative="1" as="geometry"/>
                </mxCell>
                <mxCell id="35" style="edgeStyle=none;html=1;entryX=1;entryY=0.5;entryDx=0;entryDy=0;" parent="1" source="32" target="15" edge="1">
                    <mxGeometry relative="1" as="geometry"/>
                </mxCell>
                <mxCell id="36" style="edgeStyle=none;html=1;entryX=0;entryY=0.5;entryDx=0;entryDy=0;" parent="1" source="32" target="30" edge="1">
                    <mxGeometry relative="1" as="geometry"/>
                </mxCell>
                <mxCell id="32" value="" style="shape=image;verticalLabelPosition=bottom;labelBackgroundColor=#ffffff;verticalAlign=top;aspect=fixed;imageAspect=0;image=data:image/png,iVBORw0KGgoAAAANSUhEUgAAAH0AAAB9CAMAAAC4XpwXAAABC1BMVEX////ueUvm9fjQ6PDscEjtdEu2z+rpZUsAAACuyujtcj/h6/bud0judUTp+Pnud0vC2O3++ffz9/v749zS5fLP7fbpYUXd7vXoWjzY6vT1rIftbDTsaC3xl3e+1OzX5PP5183xkW/K3/D3z8nrbEvwi2b4y77vl4jxpZn87evzs6n2wK/ynoH1tJ/taz/bxL7lnobT4OTvgFboeWbqbVbtg3DrdV7jhHXn5+fT09PippJCIRTnUjH0rJTrVgDsYh/cz8zeurDlknvfsaPeqaOsrKyZmZkVFRWEhYVvb287OztLS0tfX18oKSnLbUlnPS6IOBKObmS3WjV1OiMoEAShUjOJRSpeMB3XbEMp/QolAAAKp0lEQVRogdWafXuaShbA1SgKMioiiNUoajQhalKJMdpr2iR92dvbvS/b7u7t9/8ke87wNgzYiIE+z54/2uggvzkvc+bMgVzu/1OazaojzeZP5g4afUEQPRGEfmPwc+YAZOAK/dGo1em02+1OpzUa4VwEmEHG7EEfyI1Wu1CrFQKBD+3WCCbVH2SHbo4APWqHwOwU2jiBUTYGaMK9G51YcCDtRjb8kSA02s+w0QJgAGGUMrsKerfjLR7lN0ShmiK7Cfc7kO3wBbGfmvmrotg6nE35LVFMSf2B2A8UB0Mcpn5fTGX1jcRGcFe0J8W32yeBtOPCEX73cnhDHNU4eoi8dwY1wL/U+X3G5fBHDb6KQbsTiDi//zK4EMARDBbv7IVH+LW2KKSkOTVinMl/wK91XqL9iIMXnoVzfDD+0aE3CAIOPzYPYaOEQ+/IhVcV+yw8qrjmyo/UrzWOTDuCwMQbH+nAfHh88zQcPr15fDjhJ8Bavy8es+4aYjuAc1bXTq6f8pIkEXKFUnriJ8Dg28dEXtV3ehR+cj2RSJ5KvVQEubqaXIf5AR5cn9z2Qr+wB65tT7ty3peiI93hdg++ICRe9QOxEyy1MPyxS/KM1F38Ve9xD76TNO6bQqO2B/66lw9LycUXe6/j8RD3yQJv5IVcjk9wr6V8Xs7brPoevXg1D13KBF6iWstXPcetc+0NwoevXs3tqO0BH9I+UH4kJFG+5arO2117RPjkFchpNPAQ/xiLbyfyvNCvxdp9CfA8OUX6K0b5UoDvLeNsX2skCPuqG/BNbrFpeVRYdugxYY8yjFW+k2DNN4TYkIO1RmE2woeM5RnTF3vXLD5Y84cnPNGJuRqfZ2yHKNvDVxMWzpq+OGR/4SkPCS+p4XnVH7oejZAQPETvPsR5vn2w6UeB4UNefx3KcfvoV29iPX/w8UpoeDEXWuvLfewwvWiHvOXRD4v6ZrPp1lP7DR8RNuiLZBtHb4kHdDfwBBq4PWT499Jh9KvrONNDfSs8V+M14RpBrMUu9v1u5+jvQ5uNF/Vw5+cij9IFjx7Kc9op0uv1H9DPzqJh59PxxofQG3FuP9mS4lmZylmRnwLQ3TEYvZrH0hsH0ke1GLeffNDLZR2FIjg8Zbuj+u3L6G7QMW7XljeGbqxuz89v1wbyz1j16wBnRvWbJcNvJ6S3InRtudKNm7GFlyjmOdU/wNfhk3E7VpzRO6Osl9kaLyG9E9V9re9mwVVqmcUjfDcORsdg/1XE9Mno7ILT7oydFbruRg98fwZWV9hBZaXrd1paumvXhmFyF6LxSxReAp+r4UHFKBtBynmh7tqNccFfODbA3pQOPr/kR6eGfnMsnY+6rVF27a58/LRxr7zVHc+D11eu3TfBKNh+mw5d+2Ccu/B/VCqVbaB8EejFsmeYTSUYvTSMD9pxdG+957yY202d0V/x/hXnb8vNOWflnel88xkHf3P+VoO4S7reuUyrrXcqc3+Xrqx1l264bvnCzm2lr1Oir7zl9pHRji46J8dajGU+u3MDxx9J5/Y40N1b7P+sVH7f8LrrXkiC8r9tfN3LGuv2w/c4sRBacuB3P5Ntt95f1sr3uxodZfzO7O+H6R6ubbQPu/Polabh0Isxyx1XhB/zLr1zgO450LwRBL1j+gdjrUQuPHeTXR22tOhtbnXjIeT2wkgQhWcP0s3BINfve3TX9KuoepbO5LoxP2oG+4xHbwjVwx6ZjBzH+z1Z7dHQLe4aTHVFSi+W9RVvGtiPOcMXDj7CR88ya2MVvuTcT/OovL4Oj94Z+ppTPcExUvSPE67yW6hYmH1MoXBmf9dXjG2sW9jitpzqjYPPcdEzrPZg6PqFt65ntLgo+bUN7rH6pTtqXcJosL969Gdr+UCqwWnG22kedN0o315Op5fnK1ScgVN82Sjf4egdjOr6gxY2fK2VpGfnNutoS97FL++gXDRAnJo2XFNjWemP6ndLbm8vFPpJWnaDIO68slrbkqBkL+V5KQWDZBuBJ+zYMY0bD79FBh5Xomh3At6gX1f4vYNEqgfKY9i7tl/ae6gRWfKqJ2tZQbD1I8ovbfl5cB77Ksuo6gmb5AOx5a06r7ybHErn4HB0T/x8wn82UCgkpE84ux/Ro4a9tlEL4bXhgXS3Y+f9OHGPmMqAeQ5I6WxvVP4j1EogUboPbyVrEXvSF4IWO9KfGIb0ac70USS2rUGeNNbs7QR9Qlaa/uMJig91TqRfc/eSZwtpUmB69gT71MEPE8e7J8wjMcDT5riP+BNKCKlLiExI7z63ZdpZ0hstgB/9QCwXehxYKIR6VvJfH2HcvD+dnC5gc/sXa5b3Ggt/wVP4EYt/ZDtmX73KGuXjX0xASo8B/MiI84R9+j4OdQsrX3z8x8pXZqBr+vAXvwAAeO9mKkuXv1V+/0Sv2H6u/JvNBF01NTga3wu9cKf0Oz1VfaGHt/+E6A++z1N49WHgve2yCdHl/1Y8+SWUBLsbyi4I6bz2URUFmvU2XJ/2b4/+PR+h11rPtkUPlWafvmi04fO8g//le/h7sgHFGym+7oPWbxU2/AYvf/3297eveU7sTQEUT/VVK1C/v4xusbIc/cpe9tNU3JGqIBy0wcuTdN/x8mQwkWPb4yEpFYfZvF+oTIqlH+Pr9VKpeJoJPGeuSyA/4NdxvDjPhn43L5b28+uUXSrJdrTTkIJcrl4TB1CKPB7x0Dizq5g2y4tlZtwspLxHwRnUObJrllK0qfsiUazxxa2h38ykMIsXZzbFsnFzMVXTsb95cbfe7XYG3HNKE71sx6LrefekdQXHd/jB6vZinMYMLHU8u7zYnasm3eRsSDphC7hOsGkmJvP17uJyOlb5Ts9LhZYX8jBIeXU2/OQJPW501edvdBy9R3Xbk3DlyRxry15WdIvS71FFOXycRpvLk3tKT9vinihIlxZIJ6FDnYwPSeXhAqOyl0myQTr6XZpR+pylkzl9CwdXZL6bGR2J0hTp0j17cCQLSqcrUs6Mju6VTDRzd8bSpVkXX8MxcQ52RvBcbhLQp2yJKU0D+iQzOnIlldLNEB3zEJnjdySj7R0EFzRR8V+Jo+PAXEV6Rtu7S5ct+Fe2OTr4hMwtnMN9ZnQMdFlB+oSjD5GOa4IsMqMvkI4WcCKMoeN390iXsqPTdIIWcCIM1xdNOpIK30n3Obr4sqTLQJdAQ1VyFjr9j6iQbpAuw+LLjA6LHLIJ0mcqzTay6uQ6dYYzyoElJDMzOixryCZIn1K6PLHobkPUKaVD5Hezo4OGkE0WPh0WN93TiTqmdPiQmd8tDHm4O9JNSocP1PHEMiXvA1lksMGri2EP7i3lFYYOZqbVFrFUSldsvKQ3XKRY3yjmbPj27bseCKxpmnOIahGnkqAVh2yphGY55Z7gZe/evh3OzHS2WoWRnBN6REHd6aEJ9z3ZUogbcNzF6YqFWU3uznKW7O4oNPtauVkXc61pZVRbKIo6m0+kd12J2JBRUHeaVWmkgZ+nNpG676TJfGGmr7VlzmazKRUaUkPiFs/qO6wx8SvVGYbrzKzqWirKFJ8HSM5WjhUlyU+zKufCYplQUkuyTLpeHTHvEhm+GS4yVhnJdhc8T4h9avrfm6e2TMDrXRtnkFlNq5qqJwo34omZ0tH5Z8j/AF/xJhclqfU+AAAAAElFTkSuQmCC;" parent="1" vertex="1">
                    <mxGeometry x="670" y="226.31" width="55" height="55" as="geometry"/>
                </mxCell>
                <mxCell id="39" value="Github actions" style="text;html=1;strokeColor=none;fillColor=none;align=center;verticalAlign=middle;whiteSpace=wrap;rounded=0;" parent="1" vertex="1">
                    <mxGeometry x="260" y="296" width="95" height="20" as="geometry"/>
                </mxCell>
                <mxCell id="40" value="run action" style="text;html=1;strokeColor=none;fillColor=none;align=center;verticalAlign=middle;whiteSpace=wrap;rounded=0;" parent="1" vertex="1">
                    <mxGeometry x="190" y="247.07999999999998" width="74" height="30" as="geometry"/>
                </mxCell>
                <mxCell id="41" value="image push" style="text;html=1;strokeColor=none;fillColor=none;align=center;verticalAlign=middle;whiteSpace=wrap;rounded=0;" parent="1" vertex="1">
                    <mxGeometry x="326" y="180" width="74" height="30" as="geometry"/>
                </mxCell>
                <mxCell id="42" value="push" style="text;html=1;strokeColor=none;fillColor=none;align=center;verticalAlign=middle;whiteSpace=wrap;rounded=0;" parent="1" vertex="1">
                    <mxGeometry x="350" y="255.07999999999998" width="74" height="30" as="geometry"/>
                </mxCell>
                <mxCell id="43" value="poling" style="text;html=1;strokeColor=none;fillColor=none;align=center;verticalAlign=middle;whiteSpace=wrap;rounded=0;" parent="1" vertex="1">
                    <mxGeometry x="600" y="238.80999999999997" width="74" height="30" as="geometry"/>
                </mxCell>
                <mxCell id="44" value="apply" style="text;html=1;strokeColor=none;fillColor=none;align=center;verticalAlign=middle;whiteSpace=wrap;rounded=0;" parent="1" vertex="1">
                    <mxGeometry x="726" y="219.99999999999997" width="74" height="30" as="geometry"/>
                </mxCell>
            </root>
        </mxGraphModel>
    </diagram>
</mxfile>